# xmcd
#
# Track frame offsets:
#	150
#	24817
#	48740
#	76092
#	104552
#	129970
#	162267
#	184765
#
# Disc length: 2834 seconds
#
# Revision: 4
# Processed by: cddbd v1.5PL3 Copyright (c) Steve Scherf et al.
# Submitted via: CDex 1.50Beta5
#
DISCID=5a0b1008
DTITLE=Lava - Rhythm and Brazil
DYEAR=2003
DGENRE=Jazz
TTITLE0=Moon Dust Featuring Sissy Peoples
TTITLE1=Amour Segredo Featuring Janice
TTITLE2=I Say A Little Prayer Featuring Aundrea
TTITLE3=Walk On By Featuring Marcellus
TTITLE4=Vem Para Ficar Featuring Wilma And Jranne
TTITLE5=Swing Me Higher Featuring Jay
TTITLE6=Like Running Water Featuring MJ Rah-D
TTITLE7=I Say A Little Prayer Featuring Aundrea
EXTD=
EXTT0=
EXTT1=
EXTT2=
EXTT3=
EXTT4=
EXTT5=
EXTT6=
EXTT7=
PLAYORDER=
